<svg xmlns="http://www.w3.org/2000/svg" xmlns:xlink="http://www.w3.org/1999/xlink" version="1.1" x="0px" y="0px" viewBox="0 0 100 125"><path d="M150,1200 c-144,0,-250,-81,-250,-248 l0,-952 l400,0 l0,300 l-89,0 c-51,0,-50,0,-33,47 l222,605 c0,167,-106,248,-250,248 Z M1229,815 l-341,167 c-38,19,-38,19,-76,0 l-341,-167 c-32,-16,-32,-16,-42,-47 l-113,-322 c-15,-46,-15,-46,33,-46 l51,0 l0,-350 c0,-50,0,-50,50,-50 l150,0 c50,0,50,0,50,50 l0,300 c0,50,0,50,50,50 l300,0 c50,0,50,0,50,-50 l0,-300 c0,-50,0,-50,50,-50 l150,0 c50,0,50,0,50,50 l0,350 l51,0 c48,0,48,0,33,46 l-113,322 c-10,31,-10,31,-42,47 Z M927,750 c23,0,23,0,23,-23 l0,-154 c0,-23,0,-23,-23,-23 l-154,0 c-23,0,-23,0,-23,23 l0,154 c0,23,0,23,23,23 Z M927,750 " fill="#4c4c4c" stroke="none" stroke-dasharray="none" stroke-linecap="inherit" stroke-linejoin="inherit" stroke-width="1" transform="matrix(0.05,0.0,0.0,-0.05,20.0,80.0)"/><text x="0" y="115" fill="#000000" font-size="5px" font-weight="bold" font-family="'Helvetica Neue', Helvetica, Arial-Unicode, Arial, Sans-serif">Created by Thomas Helbig</text><text x="0" y="120" fill="#000000" font-size="5px" font-weight="bold" font-family="'Helvetica Neue', Helvetica, Arial-Unicode, Arial, Sans-serif">from the Noun Project</text></svg>
